<?xml version="1.0" encoding="UTF-8" standalone="no"?>
<!-- Created with Inkscape (http://www.inkscape.org/) -->

<svg
   width="156.03374mm"
   height="61.135216mm"
   viewBox="0 0 156.03374 61.135216"
   version="1.1"
   id="svg5"
   xml:space="preserve"
   xmlns="http://www.w3.org/2000/svg"
   xmlns:svg="http://www.w3.org/2000/svg"><defs
     id="defs2" /><g
     id="layer1"
     transform="translate(-28.953472,-101.57222)"><g
       id="g219"
       transform="matrix(0.58827218,0,0,0.58827218,36.508843,85.143976)"><g
         id="layer1-3" /><g
         id="g360"
         transform="matrix(19.785471,0,0,19.785471,-4400.5443,-87.62767)"><g
           id="g192"
           transform="matrix(0.35277776,0,0,-0.35277778,225.83202,7.2367779)"><path
             d="m 0,0 h -11.532 l 2.006,3.958 H 1.927 Z"
             style="fill:#1772f9;fill-opacity:1;fill-rule:nonzero;stroke:none"
             id="path194" /></g><g
           id="g196"
           transform="matrix(0.35277776,0,0,-0.35277778,230.47757,7.2367779)"><path
             d="M 0,0 H 7.811 L 5.806,3.958 h -7.733 z"
             style="fill:#1772f9;fill-opacity:1;fill-rule:nonzero;stroke:none"
             id="path198" /></g><g
           id="g200"
           transform="matrix(0.35277776,0,0,-0.35277778,231.44563,9.1649907)"><path
             d="M 0,0 H 7.812 L 5.806,3.958 h -7.733 z"
             style="fill:#1772f9;fill-opacity:1;fill-rule:nonzero;stroke:none"
             id="path202" /></g><g
           id="g204"
           transform="matrix(0.35277776,0,0,-0.35277778,232.41372,11.092851)"><path
             d="M 0,0 H 7.812 L 5.806,3.958 h -7.732 z"
             style="fill:#1772f9;fill-opacity:1;fill-rule:nonzero;stroke:none"
             id="path206" /></g><g
           id="g208"
           transform="matrix(0.35277776,0,0,-0.35277778,223.86782,11.092851)"><path
             d="m 0,0 h -5.594 l 4.855,9.447 h 5.674 z"
             style="fill:#1772f9;fill-opacity:1;fill-rule:nonzero;stroke:none"
             id="path210" /></g><g
           id="g212"
           transform="matrix(0.35277776,0,0,-0.35277778,226.43717,11.092851)"><path
             d="M 0,0 H -5.752 L 1.847,14.889 4.935,9.447 Z"
             style="fill:#1772f9;fill-opacity:1;fill-rule:nonzero;stroke:none"
             id="path214" /></g><g
           id="g216"
           transform="matrix(0.35277776,0,0,-0.35277778,229.92808,11.092851)"><path
             d="m 0,0 h 5.753 l -7.6,14.889 -3.087,-5.442 z"
             style="fill:#1772f9;fill-opacity:1;fill-rule:nonzero;stroke:none"
             id="path218" /></g></g></g></g></svg>
